<svg width="32" height="32" viewBox="0 0 32 32" fill="none" xmlns="http://www.w3.org/2000/svg">
  <circle cx="16" cy="16" r="16" fill="#E6007A"/>
  <path d="M16 6.82672C16.7739 6.82672 17.5133 7.11203 18.0472 7.64598C18.581 8.17992 18.8661 8.9196 18.8661 9.69389C18.8661 10.4682 18.581 11.2079 18.0472 11.7418C17.5133 12.2758 16.7739 12.5611 16 12.5611C15.2261 12.5611 14.4867 12.2758 13.9528 11.7418C13.419 11.2079 13.1339 10.4682 13.1339 9.69389C13.1339 8.9196 13.419 8.17992 13.9528 7.64598C14.4867 7.11203 15.2261 6.82672 16 6.82672ZM16 19.4389C16.7739 19.4389 17.5133 19.7242 18.0472 20.2582C18.581 20.7921 18.8661 21.5318 18.8661 22.3061C18.8661 23.0804 18.581 23.8201 18.0472 24.354C17.5133 24.888 16.7739 25.1733 16 25.1733C15.2261 25.1733 14.4867 24.888 13.9528 24.354C13.419 23.8201 13.1339 23.0804 13.1339 22.3061C13.1339 21.5318 13.419 20.7921 13.9528 20.2582C14.4867 19.7242 15.2261 19.4389 16 19.4389ZM9.6939 13.1339C10.4682 13.1339 11.2079 13.419 11.7418 13.9528C12.2758 14.4867 12.5611 15.2261 12.5611 16C12.5611 16.7739 12.2758 17.5133 11.7418 18.0472C11.2079 18.581 10.4682 18.8661 9.6939 18.8661C8.9196 18.8661 8.17992 18.581 7.64598 18.0472C7.11203 17.5133 6.82672 16.7739 6.82672 16C6.82672 15.2261 7.11203 14.4867 7.64598 13.9528C8.17992 13.419 8.9196 13.1339 9.6939 13.1339ZM22.3061 13.1339C23.0804 13.1339 23.8201 13.419 24.354 13.9528C24.888 14.4867 25.1733 15.2261 25.1733 16C25.1733 16.7739 24.888 17.5133 24.354 18.0472C23.8201 18.581 23.0804 18.8661 22.3061 18.8661C21.5318 18.8661 20.7921 18.581 20.2582 18.0472C19.7242 17.5133 19.4389 16.7739 19.4389 16C19.4389 15.2261 19.7242 14.4867 20.2582 13.9528C20.7921 13.419 21.5318 13.1339 22.3061 13.1339ZM11.5557 11.5557C12.0896 11.0217 12.8293 10.7364 13.6036 10.7364C14.3779 10.7364 15.1176 11.0217 15.6515 11.5557C16.1855 12.0896 16.4708 12.8293 16.4708 13.6036C16.4708 14.3779 16.1855 15.1176 15.6515 15.6515C15.1176 16.1855 14.3779 16.4708 13.6036 16.4708C12.8293 16.4708 12.0896 16.1855 11.5557 15.6515C11.0217 15.1176 10.7364 14.3779 10.7364 13.6036C10.7364 12.8293 11.0217 12.0896 11.5557 11.5557ZM20.3442 20.3442C20.878 19.8102 21.6175 19.5249 22.3917 19.5249C23.1658 19.5249 23.9054 19.8102 24.4393 20.3442C24.9733 20.878 25.2586 21.6175 25.2586 22.3917C25.2586 23.1658 24.9733 23.9054 24.4393 24.4393C23.9054 24.9733 23.1658 25.2586 22.3917 25.2586C21.6175 25.2586 20.878 24.9733 20.3442 24.4393C19.8102 23.9054 19.5249 23.1658 19.5249 22.3917C19.5249 21.6175 19.8102 20.878 20.3442 20.3442ZM11.6409 20.3442C12.1748 19.8102 12.9144 19.5249 13.6885 19.5249C14.4627 19.5249 15.2023 19.8102 15.7362 20.3442C16.2702 20.878 16.5555 21.6175 16.5555 22.3917C16.5555 23.1658 16.2702 23.9054 15.7362 24.4393C15.2023 24.9733 14.4627 25.2586 13.6885 25.2586C12.9144 25.2586 12.1748 24.9733 11.6409 24.4393C11.107 23.9054 10.8218 23.1658 10.8218 22.3917C10.8218 21.6175 11.107 20.878 11.6409 20.3442ZM16.3481 16.3481C16.8821 15.8142 17.6217 15.5289 18.3959 15.5289C19.17 15.5289 19.9096 15.8142 20.4435 16.3481C20.9775 16.8821 21.2628 17.6217 21.2628 18.3959C21.2628 19.17 20.9775 19.9096 20.4435 20.4435C19.9096 20.9775 19.17 21.2628 18.3959 21.2628C17.6217 21.2628 16.8821 20.9775 16.3481 20.4435C15.8142 19.9096 15.5289 19.17 15.5289 18.3959C15.5289 17.6217 15.8142 16.8821 16.3481 16.3481ZM20.4435 11.5557C20.9775 11.0217 21.7172 10.7364 22.4914 10.7364C23.2657 10.7364 24.0054 11.0217 24.5393 11.5557C25.0733 12.0896 25.3586 12.8293 25.3586 13.6036C25.3586 14.3779 25.0733 15.1176 24.5393 15.6515C24.0054 16.1855 23.2657 16.4708 22.4914 16.4708C21.7172 16.4708 20.9775 16.1855 20.4435 15.6515C19.9096 15.1176 19.6243 14.3779 19.6243 13.6036C19.6243 12.8293 19.9096 12.0896 20.4435 11.5557Z" fill="white"/>
</svg> 