<svg width="800" height="600" viewBox="0 0 800 600" fill="none" xmlns="http://www.w3.org/2000/svg">
  <!-- Background with gradient -->
  <rect width="800" height="600" fill="#133B57" fill-opacity="0.02"/>
  
  <!-- Complete World Map Base -->
  <ellipse cx="400" cy="300" rx="350" ry="250" fill="#133B57" fill-opacity="0.05" stroke="#133B57" stroke-width="2"/>
  
  <!-- Grid Lines -->
  <ellipse cx="400" cy="300" rx="350" ry="250" stroke="#133B57" stroke-width="1" stroke-opacity="0.2"/>
  <ellipse cx="400" cy="300" rx="280" ry="200" stroke="#133B57" stroke-width="1" stroke-opacity="0.2"/>
  <ellipse cx="400" cy="300" rx="210" ry="150" stroke="#133B57" stroke-width="1" stroke-opacity="0.2"/>
  <ellipse cx="400" cy="300" rx="140" ry="100" stroke="#133B57" stroke-width="1" stroke-opacity="0.2"/>
  <line x1="50" y1="300" x2="750" y2="300" stroke="#133B57" stroke-width="1" stroke-opacity="0.2"/>
  <line x1="400" y1="50" x2="400" y2="550" stroke="#133B57" stroke-width="1" stroke-opacity="0.2"/>
  
  <!-- Continents -->
  <!-- North America -->
  <path d="M200 150C210 140 240 130 270 135C300 140 320 160 330 180C340 200 345 220 335 230C325 240 300 235 275 230C250 225 225 210 215 190C205 170 190 160 200 150Z" fill="#133B57" fill-opacity="0.15" stroke="#133B57" stroke-width="1"/>
  
  <!-- South America -->
  <path d="M250 300C260 290 280 285 300 290C320 295 330 310 335 325C340 340 345 355 335 365C325 375 305 370 285 365C265 360 250 350 245 335C240 320 240 310 250 300Z" fill="#133B57" fill-opacity="0.15" stroke="#133B57" stroke-width="1"/>
  
  <!-- Europe -->
  <path d="M400 150C410 140 430 135 450 140C470 145 480 160 485 175C490 190 495 205 485 215C475 225 455 220 435 215C415 210 400 200 395 185C390 170 390 160 400 150Z" fill="#133B57" fill-opacity="0.15" stroke="#133B57" stroke-width="1"/>
  
  <!-- Africa -->
  <path d="M400 260C410 250 430 245 450 250C470 255 480 270 485 285C490 300 495 315 485 325C475 335 455 330 435 325C415 320 400 310 395 295C390 280 390 270 400 260Z" fill="#133B57" fill-opacity="0.15" stroke="#133B57" stroke-width="1"/>
  
  <!-- Asia -->
  <path d="M520 180C530 170 550 165 570 170C590 175 600 190 605 205C610 220 615 235 605 245C595 255 575 250 555 245C535 240 520 230 515 215C510 200 510 190 520 180Z" fill="#133B57" fill-opacity="0.15" stroke="#133B57" stroke-width="1"/>
  
  <!-- Australia -->
  <path d="M580 360C590 350 610 345 630 350C650 355 660 370 665 385C670 400 675 415 665 425C655 435 635 430 615 425C595 420 580 410 575 395C570 380 570 370 580 360Z" fill="#133B57" fill-opacity="0.15" stroke="#133B57" stroke-width="1"/>
  
  <!-- Canada Highlight -->
  <path d="M230 160C240 150 260 145 280 150C300 155 310 170 315 185C320 200 325 215 315 225C305 235 285 230 265 225C245 220 230 210 225 195C220 180 220 170 230 160Z" fill="#E96543" fill-opacity="0.5" stroke="#E96543" stroke-width="1"/>
  
  <!-- Main Payment Network -->
  <!-- Origin Hub - Canada -->
  <circle cx="250" cy="175" r="20" fill="#E96543"/>
  <circle cx="250" cy="175" r="12" fill="white"/>
  <circle cx="250" cy="175" r="5" fill="#E96543"/>
  
  <!-- Major Payment Routes - Animated Paths -->
  <!-- To Europe -->
  <path d="M250 175C300 150 350 125 450 150" stroke="#E96543" stroke-width="3" stroke-dasharray="10 5">
    <animate attributeName="stroke-dashoffset" from="15" to="0" dur="2s" repeatCount="indefinite" />
  </path>
  <circle cx="450" cy="150" r="12" fill="#133B57"/>
  <circle cx="450" cy="150" r="6" fill="white"/>
  
  <!-- To Asia -->
  <path d="M250 175C350 160 450 145 550 180" stroke="#E96543" stroke-width="3" stroke-dasharray="10 5">
    <animate attributeName="stroke-dashoffset" from="15" to="0" dur="2.3s" repeatCount="indefinite" />
  </path>
  <circle cx="550" cy="180" r="12" fill="#133B57"/>
  <circle cx="550" cy="180" r="6" fill="white"/>
  
  <!-- To Africa -->
  <path d="M250 175C300 210 350 245 450 270" stroke="#E96543" stroke-width="3" stroke-dasharray="10 5">
    <animate attributeName="stroke-dashoffset" from="15" to="0" dur="2.5s" repeatCount="indefinite" />
  </path>
  <circle cx="450" cy="270" r="12" fill="#133B57"/>
  <circle cx="450" cy="270" r="6" fill="white"/>
  
  <!-- To Australia -->
  <path d="M250 175C350 240 450 305 600 380" stroke="#E96543" stroke-width="3" stroke-dasharray="10 5">
    <animate attributeName="stroke-dashoffset" from="15" to="0" dur="3s" repeatCount="indefinite" />
  </path>
  <circle cx="600" cy="380" r="12" fill="#133B57"/>
  <circle cx="600" cy="380" r="6" fill="white"/>
  
  <!-- To South America -->
  <path d="M250 175C250 220 250 265 280 310" stroke="#E96543" stroke-width="3" stroke-dasharray="10 5">
    <animate attributeName="stroke-dashoffset" from="15" to="0" dur="1.8s" repeatCount="indefinite" />
  </path>
  <circle cx="280" cy="310" r="12" fill="#133B57"/>
  <circle cx="280" cy="310" r="6" fill="white"/>
  
  <!-- Secondary Network Paths -->
  <!-- Left Side -->
  <path d="M250 175C200 220 150 265 120 330" stroke="#E96543" stroke-width="3" stroke-dasharray="10 5">
    <animate attributeName="stroke-dashoffset" from="15" to="0" dur="2.7s" repeatCount="indefinite" />
  </path>
  <circle cx="120" cy="330" r="12" fill="#133B57"/>
  <circle cx="120" cy="330" r="6" fill="white"/>
  
  <!-- Bottom Left -->
  <path d="M250 175C200 250 150 325 180 450" stroke="#E96543" stroke-width="3" stroke-dasharray="10 5">
    <animate attributeName="stroke-dashoffset" from="15" to="0" dur="2.9s" repeatCount="indefinite" />
  </path>
  <circle cx="180" cy="450" r="12" fill="#133B57"/>
  <circle cx="180" cy="450" r="6" fill="white"/>
  
  <!-- Bottom -->
  <path d="M250 175C300 280 350 385 400 480" stroke="#E96543" stroke-width="3" stroke-dasharray="10 5">
    <animate attributeName="stroke-dashoffset" from="15" to="0" dur="2.6s" repeatCount="indefinite" />
  </path>
  <circle cx="400" cy="480" r="12" fill="#133B57"/>
  <circle cx="400" cy="480" r="6" fill="white"/>
  
  <!-- Bottom Right -->
  <path d="M250 175C330 260 410 345 500 450" stroke="#E96543" stroke-width="3" stroke-dasharray="10 5">
    <animate attributeName="stroke-dashoffset" from="15" to="0" dur="2.4s" repeatCount="indefinite" />
  </path>
  <circle cx="500" cy="450" r="12" fill="#133B57"/>
  <circle cx="500" cy="450" r="6" fill="white"/>
  
  <!-- Right Side -->
  <path d="M250 175C350 200 450 225 680 250" stroke="#E96543" stroke-width="3" stroke-dasharray="10 5">
    <animate attributeName="stroke-dashoffset" from="15" to="0" dur="3.2s" repeatCount="indefinite" />
  </path>
  <circle cx="680" cy="250" r="12" fill="#133B57"/>
  <circle cx="680" cy="250" r="6" fill="white"/>
  
  <!-- Top Right -->
  <path d="M250 175C350 130 450 85 600 100" stroke="#E96543" stroke-width="3" stroke-dasharray="10 5">
    <animate attributeName="stroke-dashoffset" from="15" to="0" dur="2.8s" repeatCount="indefinite" />
  </path>
  <circle cx="600" cy="100" r="12" fill="#133B57"/>
  <circle cx="600" cy="100" r="6" fill="white"/>
  
  <!-- Top -->
  <path d="M250 175C300 130 350 85 400 80" stroke="#E96543" stroke-width="3" stroke-dasharray="10 5">
    <animate attributeName="stroke-dashoffset" from="15" to="0" dur="1.9s" repeatCount="indefinite" />
  </path>
  <circle cx="400" cy="80" r="12" fill="#133B57"/>
  <circle cx="400" cy="80" r="6" fill="white"/>
  
  <!-- Top Left -->
  <path d="M250 175C200 140 150 105 100 120" stroke="#E96543" stroke-width="3" stroke-dasharray="10 5">
    <animate attributeName="stroke-dashoffset" from="15" to="0" dur="2.1s" repeatCount="indefinite" />
  </path>
  <circle cx="100" cy="120" r="12" fill="#133B57"/>
  <circle cx="100" cy="120" r="6" fill="white"/>
  
  <!-- Digital Payment Elements -->
  <!-- Credit Cards -->
  <g transform="translate(350, 200) rotate(-15)">
    <rect x="-25" y="-15" width="50" height="30" rx="4" fill="white" stroke="#133B57" stroke-width="1"/>
    <rect x="-20" y="-10" width="40" height="6" rx="1" fill="#E96543"/>
    <rect x="-20" y="0" width="25" height="4" rx="1" fill="#133B57" fill-opacity="0.3"/>
    <rect x="-20" y="7" width="15" height="4" rx="1" fill="#133B57" fill-opacity="0.3"/>
  </g>
  
  <g transform="translate(480, 320) rotate(10)">
    <rect x="-25" y="-15" width="50" height="30" rx="4" fill="white" stroke="#133B57" stroke-width="1"/>
    <rect x="-20" y="-10" width="40" height="6" rx="1" fill="#E96543"/>
    <rect x="-20" y="0" width="25" height="4" rx="1" fill="#133B57" fill-opacity="0.3"/>
    <rect x="-20" y="7" width="15" height="4" rx="1" fill="#133B57" fill-opacity="0.3"/>
  </g>
  
  <g transform="translate(150, 250) rotate(-5)">
    <rect x="-25" y="-15" width="50" height="30" rx="4" fill="white" stroke="#133B57" stroke-width="1"/>
    <rect x="-20" y="-10" width="40" height="6" rx="1" fill="#E96543"/>
    <rect x="-20" y="0" width="25" height="4" rx="1" fill="#133B57" fill-opacity="0.3"/>
    <rect x="-20" y="7" width="15" height="4" rx="1" fill="#133B57" fill-opacity="0.3"/>
  </g>
  
  <g transform="translate(650, 180) rotate(15)">
    <rect x="-25" y="-15" width="50" height="30" rx="4" fill="white" stroke="#133B57" stroke-width="1"/>
    <rect x="-20" y="-10" width="40" height="6" rx="1" fill="#E96543"/>
    <rect x="-20" y="0" width="25" height="4" rx="1" fill="#133B57" fill-opacity="0.3"/>
    <rect x="-20" y="7" width="15" height="4" rx="1" fill="#133B57" fill-opacity="0.3"/>
  </g>
  
  <!-- Mobile Phones -->
  <g transform="translate(520, 400) rotate(-5)">
    <rect x="-12" y="-20" width="24" height="40" rx="3" fill="white" stroke="#133B57" stroke-width="1"/>
    <rect x="-8" y="-16" width="16" height="28" rx="1" fill="#133B57" fill-opacity="0.1"/>
    <circle cx="0" cy="16" r="2" fill="#133B57" fill-opacity="0.3"/>
  </g>
  
  <g transform="translate(320, 380) rotate(5)">
    <rect x="-12" y="-20" width="24" height="40" rx="3" fill="white" stroke="#133B57" stroke-width="1"/>
    <rect x="-8" y="-16" width="16" height="28" rx="1" fill="#133B57" fill-opacity="0.1"/>
    <circle cx="0" cy="16" r="2" fill="#133B57" fill-opacity="0.3"/>
  </g>
  
  <g transform="translate(200, 400) rotate(-10)">
    <rect x="-12" y="-20" width="24" height="40" rx="3" fill="white" stroke="#133B57" stroke-width="1"/>
    <rect x="-8" y="-16" width="16" height="28" rx="1" fill="#133B57" fill-opacity="0.1"/>
    <circle cx="0" cy="16" r="2" fill="#133B57" fill-opacity="0.3"/>
  </g>
  
  <g transform="translate(600, 150) rotate(10)">
    <rect x="-12" y="-20" width="24" height="40" rx="3" fill="white" stroke="#133B57" stroke-width="1"/>
    <rect x="-8" y="-16" width="16" height="28" rx="1" fill="#133B57" fill-opacity="0.1"/>
    <circle cx="0" cy="16" r="2" fill="#133B57" fill-opacity="0.3"/>
  </g>
  
  <!-- Blockchain Elements -->
  <g transform="translate(280, 250)">
    <rect x="-15" y="-15" width="30" height="30" rx="3" fill="white" stroke="#E96543" stroke-width="2"/>
    <path d="M-5 -5L5 -5L5 5L-5 5Z" fill="#E96543"/>
    <path d="M-8 -8L8 -8L8 8L-8 8Z" stroke="#E96543" stroke-width="1" fill="none"/>
  </g>
  
  <g transform="translate(380, 350)">
    <rect x="-15" y="-15" width="30" height="30" rx="3" fill="white" stroke="#E96543" stroke-width="2"/>
    <path d="M-5 -5L5 -5L5 5L-5 5Z" fill="#E96543"/>
    <path d="M-8 -8L8 -8L8 8L-8 8Z" stroke="#E96543" stroke-width="1" fill="none"/>
  </g>
  
  <g transform="translate(500, 300)">
    <rect x="-15" y="-15" width="30" height="30" rx="3" fill="white" stroke="#E96543" stroke-width="2"/>
    <path d="M-5 -5L5 -5L5 5L-5 5Z" fill="#E96543"/>
    <path d="M-8 -8L8 -8L8 8L-8 8Z" stroke="#E96543" stroke-width="1" fill="none"/>
  </g>
  
  <g transform="translate(180, 320)">
    <rect x="-15" y="-15" width="30" height="30" rx="3" fill="white" stroke="#E96543" stroke-width="2"/>
    <path d="M-5 -5L5 -5L5 5L-5 5Z" fill="#E96543"/>
    <path d="M-8 -8L8 -8L8 8L-8 8Z" stroke="#E96543" stroke-width="1" fill="none"/>
  </g>
  
  <g transform="translate(600, 220)">
    <rect x="-15" y="-15" width="30" height="30" rx="3" fill="white" stroke="#E96543" stroke-width="2"/>
    <path d="M-5 -5L5 -5L5 5L-5 5Z" fill="#E96543"/>
    <path d="M-8 -8L8 -8L8 8L-8 8Z" stroke="#E96543" stroke-width="1" fill="none"/>
  </g>
  
  <g transform="translate(450, 450)">
    <rect x="-15" y="-15" width="30" height="30" rx="3" fill="white" stroke="#E96543" stroke-width="2"/>
    <path d="M-5 -5L5 -5L5 5L-5 5Z" fill="#E96543"/>
    <path d="M-8 -8L8 -8L8 8L-8 8Z" stroke="#E96543" stroke-width="1" fill="none"/>
  </g>
  
  <g transform="translate(150, 450)">
    <rect x="-15" y="-15" width="30" height="30" rx="3" fill="white" stroke="#E96543" stroke-width="2"/>
    <path d="M-5 -5L5 -5L5 5L-5 5Z" fill="#E96543"/>
    <path d="M-8 -8L8 -8L8 8L-8 8Z" stroke="#E96543" stroke-width="1" fill="none"/>
  </g>
  
  <g transform="translate(650, 350)">
    <rect x="-15" y="-15" width="30" height="30" rx="3" fill="white" stroke="#E96543" stroke-width="2"/>
    <path d="M-5 -5L5 -5L5 5L-5 5Z" fill="#E96543"/>
    <path d="M-8 -8L8 -8L8 8L-8 8Z" stroke="#E96543" stroke-width="1" fill="none"/>
  </g>
  
  <!-- Currency Symbols -->
  <g transform="translate(370, 150)">
    <circle cx="0" cy="0" r="18" fill="#E96543" fill-opacity="0.2"/>
    <path d="M0 -8V8M-5 -5H5M-5 5H5" stroke="#E96543" stroke-width="2"/>
  </g>
  
  <g transform="translate(450, 230)">
    <circle cx="0" cy="0" r="18" fill="#E96543" fill-opacity="0.2"/>
    <text x="-6" y="6" font-family="Arial" font-size="18" font-weight="bold" fill="#E96543">€</text>
  </g>
  
  <g transform="translate(520, 150)">
    <circle cx="0" cy="0" r="18" fill="#E96543" fill-opacity="0.2"/>
    <text x="-6" y="6" font-family="Arial" font-size="18" font-weight="bold" fill="#E96543">¥</text>
  </g>
  
  <g transform="translate(410, 400)">
    <circle cx="0" cy="0" r="18" fill="#E96543" fill-opacity="0.2"/>
    <text x="-6" y="6" font-family="Arial" font-size="18" font-weight="bold" fill="#E96543">£</text>
  </g>
  
  <g transform="translate(300, 100)">
    <circle cx="0" cy="0" r="18" fill="#E96543" fill-opacity="0.2"/>
    <text x="-6" y="6" font-family="Arial" font-size="18" font-weight="bold" fill="#E96543">$</text>
  </g>
  
  <g transform="translate(150, 200)">
    <circle cx="0" cy="0" r="18" fill="#E96543" fill-opacity="0.2"/>
    <text x="-6" y="6" font-family="Arial" font-size="18" font-weight="bold" fill="#E96543">₿</text>
  </g>
  
  <g transform="translate(650, 250)">
    <circle cx="0" cy="0" r="18" fill="#E96543" fill-opacity="0.2"/>
    <text x="-6" y="6" font-family="Arial" font-size="18" font-weight="bold" fill="#E96543">₹</text>
  </g>
  
  <g transform="translate(550, 450)">
    <circle cx="0" cy="0" r="18" fill="#E96543" fill-opacity="0.2"/>
    <text x="-6" y="6" font-family="Arial" font-size="18" font-weight="bold" fill="#E96543">$</text>
  </g>
  
  <g transform="translate(200, 500)">
    <circle cx="0" cy="0" r="18" fill="#E96543" fill-opacity="0.2"/>
    <text x="-6" y="6" font-family="Arial" font-size="18" font-weight="bold" fill="#E96543">€</text>
  </g>
  
  <g transform="translate(100, 400)">
    <circle cx="0" cy="0" r="18" fill="#E96543" fill-opacity="0.2"/>
    <text x="-6" y="6" font-family="Arial" font-size="18" font-weight="bold" fill="#E96543">¥</text>
  </g>
  
  <g transform="translate(700, 400)">
    <circle cx="0" cy="0" r="18" fill="#E96543" fill-opacity="0.2"/>
    <text x="-6" y="6" font-family="Arial" font-size="18" font-weight="bold" fill="#E96543">£</text>
  </g>
  
  <!-- Speed Lines for Fast Transfers -->
  <path d="M330 180C340 190 350 200 360 210" stroke="#E96543" stroke-width="2" stroke-opacity="0.7"/>
  <path d="M340 190C350 200 360 210 370 220" stroke="#E96543" stroke-width="2" stroke-opacity="0.5"/>
  <path d="M350 200C360 210 370 220 380 230" stroke="#E96543" stroke-width="2" stroke-opacity="0.3"/>
  
  <path d="M330 250C340 270 350 290 360 310" stroke="#E96543" stroke-width="2" stroke-opacity="0.7"/>
  <path d="M340 260C350 280 360 300 370 320" stroke="#E96543" stroke-width="2" stroke-opacity="0.5"/>
  <path d="M350 270C360 290 370 310 380 330" stroke="#E96543" stroke-width="2" stroke-opacity="0.3"/>
  
  <path d="M400 200C420 220 440 240 460 260" stroke="#E96543" stroke-width="2" stroke-opacity="0.7"/>
  <path d="M410 210C430 230 450 250 470 270" stroke="#E96543" stroke-width="2" stroke-opacity="0.5"/>
  <path d="M420 220C440 240 460 260 480 280" stroke="#E96543" stroke-width="2" stroke-opacity="0.3"/>
  
  <path d="M200 350C220 370 240 390 260 410" stroke="#E96543" stroke-width="2" stroke-opacity="0.7"/>
  <path d="M210 360C230 380 250 400 270 420" stroke="#E96543" stroke-width="2" stroke-opacity="0.5"/>
  <path d="M220 370C240 390 260 410 280 430" stroke="#E96543" stroke-width="2" stroke-opacity="0.3"/>
  
  <path d="M500 350C520 370 540 390 560 410" stroke="#E96543" stroke-width="2" stroke-opacity="0.7"/>
  <path d="M510 360C530 380 550 400 570 420" stroke="#E96543" stroke-width="2" stroke-opacity="0.5"/>
  <path d="M520 370C540 390 560 410 580 430" stroke="#E96543" stroke-width="2" stroke-opacity="0.3"/>
  
  <!-- Corner Elements -->
  <!-- Top Left -->
  <g transform="translate(80, 80)">
    <rect x="-20" y="-20" width="40" height="40" rx="5" fill="#133B57" fill-opacity="0.05" stroke="#E96543" stroke-width="1"/>
    <path d="M-10 -10L10 -10L10 10L-10 10Z" stroke="#E96543" stroke-width="1" fill="none"/>
    <circle cx="0" cy="0" r="5" fill="#E96543" fill-opacity="0.3"/>
  </g>
  
  <!-- Top Right -->
  <g transform="translate(720, 80)">
    <rect x="-20" y="-20" width="40" height="40" rx="5" fill="#133B57" fill-opacity="0.05" stroke="#E96543" stroke-width="1"/>
    <path d="M-10 -10L10 -10L10 10L-10 10Z" stroke="#E96543" stroke-width="1" fill="none"/>
    <circle cx="0" cy="0" r="5" fill="#E96543" fill-opacity="0.3"/>
  </g>
  
  <!-- Bottom Left -->
  <g transform="translate(80, 520)">
    <rect x="-20" y="-20" width="40" height="40" rx="5" fill="#133B57" fill-opacity="0.05" stroke="#E96543" stroke-width="1"/>
    <path d="M-10 -10L10 -10L10 10L-10 10Z" stroke="#E96543" stroke-width="1" fill="none"/>
    <circle cx="0" cy="0" r="5" fill="#E96543" fill-opacity="0.3"/>
  </g>
  
  <!-- Bottom Right -->
  <g transform="translate(720, 520)">
    <rect x="-20" y="-20" width="40" height="40" rx="5" fill="#133B57" fill-opacity="0.05" stroke="#E96543" stroke-width="1"/>
    <path d="M-10 -10L10 -10L10 10L-10 10Z" stroke="#E96543" stroke-width="1" fill="none"/>
    <circle cx="0" cy="0" r="5" fill="#E96543" fill-opacity="0.3"/>
  </g>
</svg> 